<mxfile host="app.diagrams.net" agent="Mozilla/5.0 (Windows NT 10.0; Win64; x64) AppleWebKit/537.36 (KHTML, like Gecko) Chrome/133.0.0.0 Safari/537.36" version="26.1.0">
  <diagram name="Page-1" id="cIHBHCy5rS-BMq52yZIM">
    <mxGraphModel dx="2625" dy="1305" grid="1" gridSize="10" guides="1" tooltips="1" connect="1" arrows="1" fold="1" page="1" pageScale="1" pageWidth="827" pageHeight="1169" background="none" math="0" shadow="0">
      <root>
        <mxCell id="0" />
        <mxCell id="1" parent="0" />
        <mxCell id="4nd9DyFY3hLOSjWfYMda-15" value="AuthSystem" style="whiteSpace=wrap;strokeWidth=2;verticalAlign=top;" vertex="1" parent="1">
          <mxGeometry x="20" y="20" width="2802" height="810" as="geometry" />
        </mxCell>
        <mxCell id="4nd9DyFY3hLOSjWfYMda-16" value="CreateNote" style="whiteSpace=wrap;strokeWidth=2;" vertex="1" parent="4nd9DyFY3hLOSjWfYMda-15">
          <mxGeometry x="534" y="537" width="142" height="54" as="geometry" />
        </mxCell>
        <mxCell id="4nd9DyFY3hLOSjWfYMda-17" value="NoteTakingSystem" style="whiteSpace=wrap;strokeWidth=2;" vertex="1" parent="4nd9DyFY3hLOSjWfYMda-15">
          <mxGeometry x="449" y="46" width="2341" height="735" as="geometry" />
        </mxCell>
        <mxCell id="4nd9DyFY3hLOSjWfYMda-18" value="Database" style="whiteSpace=wrap;strokeWidth=2;" vertex="1" parent="4nd9DyFY3hLOSjWfYMda-15">
          <mxGeometry x="1276" y="689" width="126" height="54" as="geometry" />
        </mxCell>
        <mxCell id="4nd9DyFY3hLOSjWfYMda-19" value="EditNote" style="whiteSpace=wrap;strokeWidth=2;" vertex="1" parent="4nd9DyFY3hLOSjWfYMda-15">
          <mxGeometry x="1134" y="537" width="122" height="54" as="geometry" />
        </mxCell>
        <mxCell id="4nd9DyFY3hLOSjWfYMda-20" value="DeleteNote" style="whiteSpace=wrap;strokeWidth=2;" vertex="1" parent="4nd9DyFY3hLOSjWfYMda-15">
          <mxGeometry x="1306" y="537" width="141" height="54" as="geometry" />
        </mxCell>
        <mxCell id="4nd9DyFY3hLOSjWfYMda-21" value="ViewNotes" style="whiteSpace=wrap;strokeWidth=2;" vertex="1" parent="4nd9DyFY3hLOSjWfYMda-15">
          <mxGeometry x="1229" y="83" width="135" height="54" as="geometry" />
        </mxCell>
        <mxCell id="4nd9DyFY3hLOSjWfYMda-22" value="MultimediaStorage" style="whiteSpace=wrap;strokeWidth=2;" vertex="1" parent="4nd9DyFY3hLOSjWfYMda-15">
          <mxGeometry x="1637" y="537" width="194" height="54" as="geometry" />
        </mxCell>
        <mxCell id="4nd9DyFY3hLOSjWfYMda-23" value="User" style="whiteSpace=wrap;strokeWidth=2;" vertex="1" parent="4nd9DyFY3hLOSjWfYMda-15">
          <mxGeometry x="1524" y="234" width="92" height="54" as="geometry" />
        </mxCell>
        <mxCell id="4nd9DyFY3hLOSjWfYMda-24" value="CreateReference" style="whiteSpace=wrap;strokeWidth=2;" vertex="1" parent="4nd9DyFY3hLOSjWfYMda-15">
          <mxGeometry x="1480" y="386" width="180" height="54" as="geometry" />
        </mxCell>
        <mxCell id="4nd9DyFY3hLOSjWfYMda-25" value="EditReference" style="whiteSpace=wrap;strokeWidth=2;" vertex="1" parent="4nd9DyFY3hLOSjWfYMda-15">
          <mxGeometry x="1710" y="386" width="161" height="54" as="geometry" />
        </mxCell>
        <mxCell id="4nd9DyFY3hLOSjWfYMda-26" value="DeleteReference" style="whiteSpace=wrap;strokeWidth=2;" vertex="1" parent="4nd9DyFY3hLOSjWfYMda-15">
          <mxGeometry x="1921" y="386" width="179" height="54" as="geometry" />
        </mxCell>
        <mxCell id="4nd9DyFY3hLOSjWfYMda-27" value="CreateCollection" style="whiteSpace=wrap;strokeWidth=2;" vertex="1" parent="4nd9DyFY3hLOSjWfYMda-15">
          <mxGeometry x="2134" y="537" width="180" height="54" as="geometry" />
        </mxCell>
        <mxCell id="4nd9DyFY3hLOSjWfYMda-28" value="EditCollection" style="whiteSpace=wrap;strokeWidth=2;" vertex="1" parent="4nd9DyFY3hLOSjWfYMda-15">
          <mxGeometry x="2364" y="537" width="161" height="54" as="geometry" />
        </mxCell>
        <mxCell id="4nd9DyFY3hLOSjWfYMda-29" value="DeleteCollection" style="whiteSpace=wrap;strokeWidth=2;" vertex="1" parent="4nd9DyFY3hLOSjWfYMda-15">
          <mxGeometry x="2575" y="537" width="180" height="54" as="geometry" />
        </mxCell>
        <mxCell id="4nd9DyFY3hLOSjWfYMda-30" value="LoginProcess" style="whiteSpace=wrap;strokeWidth=2;" vertex="1" parent="4nd9DyFY3hLOSjWfYMda-15">
          <mxGeometry x="43" y="386" width="151" height="54" as="geometry" />
        </mxCell>
        <mxCell id="4nd9DyFY3hLOSjWfYMda-31" value="RegisterProcess" style="whiteSpace=wrap;strokeWidth=2;" vertex="1" parent="4nd9DyFY3hLOSjWfYMda-15">
          <mxGeometry x="244" y="386" width="170" height="54" as="geometry" />
        </mxCell>
        <mxCell id="4nd9DyFY3hLOSjWfYMda-32" value="Save Note" style="curved=1;startArrow=none;endArrow=block;exitX=0.5;exitY=1;entryX=0;entryY=0.37;rounded=0;" edge="1" parent="4nd9DyFY3hLOSjWfYMda-15" source="4nd9DyFY3hLOSjWfYMda-16" target="4nd9DyFY3hLOSjWfYMda-18">
          <mxGeometry relative="1" as="geometry">
            <Array as="points">
              <mxPoint x="605" y="640" />
            </Array>
          </mxGeometry>
        </mxCell>
        <mxCell id="4nd9DyFY3hLOSjWfYMda-33" value="Update Note" style="curved=1;startArrow=none;endArrow=block;exitX=0.5;exitY=1;entryX=0.09;entryY=-0.01;rounded=0;" edge="1" parent="4nd9DyFY3hLOSjWfYMda-15" source="4nd9DyFY3hLOSjWfYMda-19" target="4nd9DyFY3hLOSjWfYMda-18">
          <mxGeometry relative="1" as="geometry">
            <Array as="points">
              <mxPoint x="1195" y="640" />
            </Array>
          </mxGeometry>
        </mxCell>
        <mxCell id="4nd9DyFY3hLOSjWfYMda-34" value="Remove Note" style="curved=1;startArrow=none;endArrow=block;exitX=0.5;exitY=1;entryX=0.61;entryY=-0.01;rounded=0;" edge="1" parent="4nd9DyFY3hLOSjWfYMda-15" source="4nd9DyFY3hLOSjWfYMda-20" target="4nd9DyFY3hLOSjWfYMda-18">
          <mxGeometry relative="1" as="geometry">
            <Array as="points">
              <mxPoint x="1377" y="640" />
            </Array>
          </mxGeometry>
        </mxCell>
        <mxCell id="4nd9DyFY3hLOSjWfYMda-35" value="Retrieve Notes" style="curved=1;startArrow=none;endArrow=block;exitX=0;exitY=0.67;entryX=0;entryY=0.35;rounded=0;" edge="1" parent="4nd9DyFY3hLOSjWfYMda-15" source="4nd9DyFY3hLOSjWfYMda-21" target="4nd9DyFY3hLOSjWfYMda-18">
          <mxGeometry relative="1" as="geometry">
            <Array as="points">
              <mxPoint x="742" y="186" />
              <mxPoint x="742" y="640" />
            </Array>
          </mxGeometry>
        </mxCell>
        <mxCell id="4nd9DyFY3hLOSjWfYMda-36" value="Retrieve References" style="curved=1;startArrow=none;endArrow=block;exitX=0;exitY=0.7;entryX=0;entryY=0.35;rounded=0;" edge="1" parent="4nd9DyFY3hLOSjWfYMda-15" source="4nd9DyFY3hLOSjWfYMda-21" target="4nd9DyFY3hLOSjWfYMda-22">
          <mxGeometry relative="1" as="geometry">
            <Array as="points">
              <mxPoint x="835" y="186" />
              <mxPoint x="835" y="488" />
            </Array>
          </mxGeometry>
        </mxCell>
        <mxCell id="4nd9DyFY3hLOSjWfYMda-37" value="Retrieve Collections" style="curved=1;startArrow=none;endArrow=block;exitX=0;exitY=0.76;entryX=0;entryY=0.28;rounded=0;" edge="1" parent="4nd9DyFY3hLOSjWfYMda-15" source="4nd9DyFY3hLOSjWfYMda-21" target="4nd9DyFY3hLOSjWfYMda-18">
          <mxGeometry relative="1" as="geometry">
            <Array as="points">
              <mxPoint x="929" y="186" />
              <mxPoint x="929" y="640" />
            </Array>
          </mxGeometry>
        </mxCell>
        <mxCell id="4nd9DyFY3hLOSjWfYMda-38" value="Display Notes" style="curved=1;startArrow=none;endArrow=block;exitX=0;exitY=0.82;entryX=0;entryY=0.39;rounded=0;" edge="1" parent="4nd9DyFY3hLOSjWfYMda-15" source="4nd9DyFY3hLOSjWfYMda-21" target="4nd9DyFY3hLOSjWfYMda-23">
          <mxGeometry relative="1" as="geometry">
            <Array as="points">
              <mxPoint x="999" y="186" />
            </Array>
          </mxGeometry>
        </mxCell>
        <mxCell id="4nd9DyFY3hLOSjWfYMda-39" value="Display References" style="curved=1;startArrow=none;endArrow=block;exitX=0.08;exitY=1;entryX=0;entryY=0.36;rounded=0;" edge="1" parent="4nd9DyFY3hLOSjWfYMda-15" source="4nd9DyFY3hLOSjWfYMda-21" target="4nd9DyFY3hLOSjWfYMda-23">
          <mxGeometry relative="1" as="geometry">
            <Array as="points">
              <mxPoint x="1138" y="186" />
            </Array>
          </mxGeometry>
        </mxCell>
        <mxCell id="4nd9DyFY3hLOSjWfYMda-40" value="Display Collections" style="curved=1;startArrow=none;endArrow=block;exitX=1;exitY=0.57;entryX=1;entryY=0.44;rounded=0;" edge="1" parent="4nd9DyFY3hLOSjWfYMda-15" source="4nd9DyFY3hLOSjWfYMda-21" target="4nd9DyFY3hLOSjWfYMda-23">
          <mxGeometry relative="1" as="geometry">
            <Array as="points">
              <mxPoint x="2576" y="186" />
            </Array>
          </mxGeometry>
        </mxCell>
        <mxCell id="4nd9DyFY3hLOSjWfYMda-41" value="Save Reference" style="curved=1;startArrow=none;endArrow=block;exitX=0.5;exitY=1;entryX=0.2;entryY=0;rounded=0;" edge="1" parent="4nd9DyFY3hLOSjWfYMda-15" source="4nd9DyFY3hLOSjWfYMda-24" target="4nd9DyFY3hLOSjWfYMda-22">
          <mxGeometry relative="1" as="geometry">
            <Array as="points">
              <mxPoint x="1570" y="488" />
            </Array>
          </mxGeometry>
        </mxCell>
        <mxCell id="4nd9DyFY3hLOSjWfYMda-42" value="Update Reference" style="curved=1;startArrow=none;endArrow=block;exitX=0.5;exitY=1;entryX=0.6;entryY=0;rounded=0;" edge="1" parent="4nd9DyFY3hLOSjWfYMda-15" source="4nd9DyFY3hLOSjWfYMda-25" target="4nd9DyFY3hLOSjWfYMda-22">
          <mxGeometry relative="1" as="geometry">
            <Array as="points">
              <mxPoint x="1791" y="488" />
            </Array>
          </mxGeometry>
        </mxCell>
        <mxCell id="4nd9DyFY3hLOSjWfYMda-43" value="Remove Reference" style="curved=1;startArrow=none;endArrow=block;exitX=0.5;exitY=1;entryX=1;entryY=0.01;rounded=0;" edge="1" parent="4nd9DyFY3hLOSjWfYMda-15" source="4nd9DyFY3hLOSjWfYMda-26" target="4nd9DyFY3hLOSjWfYMda-22">
          <mxGeometry relative="1" as="geometry">
            <Array as="points">
              <mxPoint x="2011" y="488" />
            </Array>
          </mxGeometry>
        </mxCell>
        <mxCell id="4nd9DyFY3hLOSjWfYMda-44" value="Save Collection" style="curved=1;startArrow=none;endArrow=block;exitX=0.5;exitY=1;entryX=1;entryY=0.39;rounded=0;" edge="1" parent="4nd9DyFY3hLOSjWfYMda-15" source="4nd9DyFY3hLOSjWfYMda-27" target="4nd9DyFY3hLOSjWfYMda-18">
          <mxGeometry relative="1" as="geometry">
            <Array as="points">
              <mxPoint x="2224" y="640" />
            </Array>
          </mxGeometry>
        </mxCell>
        <mxCell id="4nd9DyFY3hLOSjWfYMda-45" value="Update Collection" style="curved=1;startArrow=none;endArrow=block;exitX=0.5;exitY=1;entryX=1;entryY=0.41;rounded=0;" edge="1" parent="4nd9DyFY3hLOSjWfYMda-15" source="4nd9DyFY3hLOSjWfYMda-28" target="4nd9DyFY3hLOSjWfYMda-18">
          <mxGeometry relative="1" as="geometry">
            <Array as="points">
              <mxPoint x="2445" y="640" />
            </Array>
          </mxGeometry>
        </mxCell>
        <mxCell id="4nd9DyFY3hLOSjWfYMda-46" value="Remove Collection" style="curved=1;startArrow=none;endArrow=block;exitX=0.5;exitY=1;entryX=1;entryY=0.43;rounded=0;" edge="1" parent="4nd9DyFY3hLOSjWfYMda-15" source="4nd9DyFY3hLOSjWfYMda-29" target="4nd9DyFY3hLOSjWfYMda-18">
          <mxGeometry relative="1" as="geometry">
            <Array as="points">
              <mxPoint x="2665" y="640" />
            </Array>
          </mxGeometry>
        </mxCell>
        <mxCell id="4nd9DyFY3hLOSjWfYMda-47" value="Login" style="curved=1;startArrow=none;endArrow=block;exitX=0;exitY=0.61;entryX=1;entryY=0.37;rounded=0;" edge="1" parent="4nd9DyFY3hLOSjWfYMda-15" source="4nd9DyFY3hLOSjWfYMda-23" target="4nd9DyFY3hLOSjWfYMda-30">
          <mxGeometry relative="1" as="geometry">
            <Array as="points">
              <mxPoint x="970" y="337" />
            </Array>
          </mxGeometry>
        </mxCell>
        <mxCell id="4nd9DyFY3hLOSjWfYMda-48" value="Register" style="curved=1;startArrow=none;endArrow=block;exitX=0;exitY=0.63;entryX=1;entryY=0.33;rounded=0;" edge="1" parent="4nd9DyFY3hLOSjWfYMda-15" source="4nd9DyFY3hLOSjWfYMda-23" target="4nd9DyFY3hLOSjWfYMda-31">
          <mxGeometry relative="1" as="geometry">
            <Array as="points">
              <mxPoint x="1043" y="337" />
            </Array>
          </mxGeometry>
        </mxCell>
        <mxCell id="4nd9DyFY3hLOSjWfYMda-49" value="Create Note" style="curved=1;startArrow=none;endArrow=block;exitX=0;exitY=0.64;entryX=1;entryY=0.3;rounded=0;" edge="1" parent="4nd9DyFY3hLOSjWfYMda-15" source="4nd9DyFY3hLOSjWfYMda-23" target="4nd9DyFY3hLOSjWfYMda-16">
          <mxGeometry relative="1" as="geometry">
            <Array as="points">
              <mxPoint x="1094" y="337" />
              <mxPoint x="1094" y="488" />
            </Array>
          </mxGeometry>
        </mxCell>
        <mxCell id="4nd9DyFY3hLOSjWfYMda-50" value="Edit Note" style="curved=1;startArrow=none;endArrow=block;exitX=0;exitY=0.68;entryX=0.5;entryY=0;rounded=0;" edge="1" parent="4nd9DyFY3hLOSjWfYMda-15" source="4nd9DyFY3hLOSjWfYMda-23" target="4nd9DyFY3hLOSjWfYMda-19">
          <mxGeometry relative="1" as="geometry">
            <Array as="points">
              <mxPoint x="1195" y="337" />
            </Array>
          </mxGeometry>
        </mxCell>
        <mxCell id="4nd9DyFY3hLOSjWfYMda-51" value="Delete Note" style="curved=1;startArrow=none;endArrow=block;exitX=0;exitY=0.84;entryX=0.5;entryY=0;rounded=0;" edge="1" parent="4nd9DyFY3hLOSjWfYMda-15" source="4nd9DyFY3hLOSjWfYMda-23" target="4nd9DyFY3hLOSjWfYMda-20">
          <mxGeometry relative="1" as="geometry">
            <Array as="points">
              <mxPoint x="1377" y="337" />
            </Array>
          </mxGeometry>
        </mxCell>
        <mxCell id="4nd9DyFY3hLOSjWfYMda-52" value="View Notes" style="curved=1;startArrow=none;endArrow=block;exitX=1;exitY=0.45;entryX=1;entryY=0.57;rounded=0;" edge="1" parent="4nd9DyFY3hLOSjWfYMda-15" source="4nd9DyFY3hLOSjWfYMda-23" target="4nd9DyFY3hLOSjWfYMda-21">
          <mxGeometry relative="1" as="geometry">
            <Array as="points">
              <mxPoint x="2708" y="186" />
            </Array>
          </mxGeometry>
        </mxCell>
        <mxCell id="4nd9DyFY3hLOSjWfYMda-53" value="Create Reference" style="curved=1;startArrow=none;endArrow=block;exitX=0.5;exitY=1.01;entryX=0.5;entryY=0;rounded=0;" edge="1" parent="4nd9DyFY3hLOSjWfYMda-15" source="4nd9DyFY3hLOSjWfYMda-23" target="4nd9DyFY3hLOSjWfYMda-24">
          <mxGeometry relative="1" as="geometry">
            <Array as="points" />
          </mxGeometry>
        </mxCell>
        <mxCell id="4nd9DyFY3hLOSjWfYMda-54" value="Edit Reference" style="curved=1;startArrow=none;endArrow=block;exitX=1;exitY=0.8;entryX=0.5;entryY=0;rounded=0;" edge="1" parent="4nd9DyFY3hLOSjWfYMda-15" source="4nd9DyFY3hLOSjWfYMda-23" target="4nd9DyFY3hLOSjWfYMda-25">
          <mxGeometry relative="1" as="geometry">
            <Array as="points">
              <mxPoint x="1791" y="337" />
            </Array>
          </mxGeometry>
        </mxCell>
        <mxCell id="4nd9DyFY3hLOSjWfYMda-55" value="Delete Reference" style="curved=1;startArrow=none;endArrow=block;exitX=1;exitY=0.65;entryX=0.5;entryY=0;rounded=0;" edge="1" parent="4nd9DyFY3hLOSjWfYMda-15" source="4nd9DyFY3hLOSjWfYMda-23" target="4nd9DyFY3hLOSjWfYMda-26">
          <mxGeometry relative="1" as="geometry">
            <Array as="points">
              <mxPoint x="2011" y="337" />
            </Array>
          </mxGeometry>
        </mxCell>
        <mxCell id="4nd9DyFY3hLOSjWfYMda-56" value="Create Collection" style="curved=1;startArrow=none;endArrow=block;exitX=1;exitY=0.61;entryX=0.5;entryY=0;rounded=0;" edge="1" parent="4nd9DyFY3hLOSjWfYMda-15" source="4nd9DyFY3hLOSjWfYMda-23" target="4nd9DyFY3hLOSjWfYMda-27">
          <mxGeometry relative="1" as="geometry">
            <Array as="points">
              <mxPoint x="2224" y="337" />
            </Array>
          </mxGeometry>
        </mxCell>
        <mxCell id="4nd9DyFY3hLOSjWfYMda-57" value="Edit Collection" style="curved=1;startArrow=none;endArrow=block;exitX=1;exitY=0.58;entryX=0.5;entryY=0;rounded=0;" edge="1" parent="4nd9DyFY3hLOSjWfYMda-15" source="4nd9DyFY3hLOSjWfYMda-23" target="4nd9DyFY3hLOSjWfYMda-28">
          <mxGeometry relative="1" as="geometry">
            <Array as="points">
              <mxPoint x="2445" y="337" />
            </Array>
          </mxGeometry>
        </mxCell>
        <mxCell id="4nd9DyFY3hLOSjWfYMda-58" value="Delete Collection" style="curved=1;startArrow=none;endArrow=block;exitX=1;exitY=0.57;entryX=0.5;entryY=0;rounded=0;" edge="1" parent="4nd9DyFY3hLOSjWfYMda-15" source="4nd9DyFY3hLOSjWfYMda-23" target="4nd9DyFY3hLOSjWfYMda-29">
          <mxGeometry relative="1" as="geometry">
            <Array as="points">
              <mxPoint x="2665" y="337" />
            </Array>
          </mxGeometry>
        </mxCell>
        <mxCell id="4nd9DyFY3hLOSjWfYMda-59" value="Authenticate" style="curved=1;startArrow=none;endArrow=block;rounded=0;" edge="1" parent="4nd9DyFY3hLOSjWfYMda-15" source="4nd9DyFY3hLOSjWfYMda-30" target="4nd9DyFY3hLOSjWfYMda-17">
          <mxGeometry relative="1" as="geometry">
            <Array as="points" />
          </mxGeometry>
        </mxCell>
        <mxCell id="4nd9DyFY3hLOSjWfYMda-60" value="Authenticate" style="curved=1;startArrow=none;endArrow=block;rounded=0;" edge="1" parent="4nd9DyFY3hLOSjWfYMda-15" source="4nd9DyFY3hLOSjWfYMda-31" target="4nd9DyFY3hLOSjWfYMda-17">
          <mxGeometry relative="1" as="geometry">
            <Array as="points" />
          </mxGeometry>
        </mxCell>
      </root>
    </mxGraphModel>
  </diagram>
</mxfile>
